<svg xmlns="http://www.w3.org/2000/svg" xml:space="preserve" style="enable-background:new 0 0 512 512" viewBox="0 0 512 512">
  <linearGradient id="a" x1="157.518" x2="238.518" y1="-13.705" y2="208.165" gradientUnits="userSpaceOnUse">
    <stop offset="0" stop-color="#fff"/>
    <stop offset=".935" stop-color="#7fdaf6"/>
  </linearGradient>
  <linearGradient id="b" x1="426.522" x2="344.348" y1="314.321" y2="147.626" gradientUnits="userSpaceOnUse">
    <stop offset="0" stop-color="#6aba6a"/>
    <stop offset="1" stop-color="#9ee59e"/>
  </linearGradient>
  <g data-name="Layer 12">
    <path fill="url(#a)" d="M450.367 218.07c-6.975-35.966-23.865-69.278-48.845-96.337-24.854-26.923-56.523-46.386-91.577-56.284C292.507 60.506 274.358 58 256 58c-51.309 0-99.96 19.549-136.991 55.046-37.641 36.072-59.271 84.593-60.908 136.62a201 201 0 0 0 1.415 30.991l.014.121c8.223 65.83 48.706 122.858 108.29 152.553C195.342 447.046 225.01 454 256.001 454c109.178 0 198-88.822 198-198 0-12.748-1.223-25.51-3.633-37.93z" data-original="url(#a)"/>
    <path fill="url(#a)" d="M454 256c0 109.18-88.82 198-198 198-30.99 0-60.66-6.95-88.18-20.67-59.58-29.69-100.07-86.72-108.29-152.55-.01-.04-.01-.08-.01-.12-.5-4.04-.88-8.12-1.14-12.22 16.51 49.17 51.92 90.34 99.53 114.06 27.52 13.72 57.19 20.67 88.18 20.67 109.17 0 198-88.82 198-198 0-4.11-.13-8.23-.39-12.33 2.78 8.23 5.01 16.65 6.67 25.23 2.41 12.42 3.63 25.18 3.63 37.93z" data-original="url(#a)"/>
    <circle cx="249.79" cy="76.21" r="18.21" fill="#bff3fb" data-original="#bff3fb"/>
    <path fill="url(#b)" d="M449.52 221.95a5.04 5.04 0 0 1-3.41 2.03c-1.01.13-1.99.24-2.94.32-1.69.16-3.31.23-4.85.23-5.26 0-9.58-.88-12.91-2.63-8.64-4.55-11.51-3.59-15.14-2.38-5.51 1.84-10.91 2.87-21.26-3.22-13.71-8.06-21.23-22.65-26.73-33.3-2.28-4.43-4.44-8.61-6.07-10.24-2.14-2.14-3.95-3.1-6.68-4.55-4.37-2.32-10.35-5.49-20.61-15.07-15.01-14-32.16-14-50.32-14-9.15 0-16.08-2.67-20.62-7.94-5.69-6.61-7.38-17.01-5.16-31.8 1.73-11.55 7.56-17.5 12.15-20.45 8.16-5.25 18.22-5.16 24.53-3.45.77-.12 4.74-1.11 16.17-9.3a4.96 4.96 0 0 1 4.27-.75c35.06 9.9 66.73 29.36 91.58 56.28 19.02 20.61 33.36 44.84 42.18 71.11.35 1.03.69 2.06 1.02 3.1.33 1.03.65 2.06.96 3.1v.02c.32 1.03.62 2.07.91 3.12.24.84.48 1.68.7 2.53.19.72.38 1.43.56 2.15.14.54.28 1.08.41 1.63.78 3.17 1.49 6.36 2.11 9.58.26 1.35-.05 2.76-.85 3.88z" data-original="url(#b)"/>
    <path fill="#9ee59e" d="M401.02 328.32c-.68 3.66-1.72 6.84-2.94 8.97-2.71 4.74-9.87 12.11-18.75 14.21a20.34 20.34 0 0 1-4.88.59c-4.97 0-11.72-1.86-17.64-9.93-9.33-12.73-4.7-19.35.38-24.55 2.16-2.22 3.04-3.27 3.04-4.73 0-3.78 1.61-7.24 4.67-10.01 6.62-5.99 18.8-7.53 23.86-7.03 4.24.43 7.82 3.06 10.06 7.42 3.53 6.84 3.69 17.1 2.2 25.06z" data-original="#9ee59e"/>
    <path fill="#6aba6a" d="M401.02 328.32c-.68 3.66-1.72 6.84-2.94 8.97-2.71 4.74-9.87 12.11-18.75 14.21a20.34 20.34 0 0 1-4.88.59c-4.97 0-11.72-1.86-17.64-9.93-6.09-8.31-6.23-14.02-4.17-18.43 5.68 7.07 12 8.75 16.72 8.75a20.34 20.34 0 0 0 4.88-.59c8.88-2.1 16.04-9.47 18.75-14.21 1.22-2.13 2.26-5.31 2.94-8.97.49-2.65.81-5.55.87-8.5.76.89 1.44 1.91 2.02 3.05 3.53 6.84 3.69 17.1 2.2 25.06z" data-original="#6aba6a"/>
    <path fill="url(#b)" d="M255.765 149.975a4.952 4.952 0 0 0-3.282 1.064c-7.532 5.918-32.295 26.066-34.689 36.842-.575 2.588-1.938 4.696-3.517 7.138-3.367 5.206-7.557 11.686-4.086 23.831 2.398 8.396 8.734 14.157 14.861 19.729 6.779 6.164 13.789 12.538 16.958 23.103 3.072 10.241 1.354 22.384-.308 34.127-1.672 11.815-3.252 22.977.557 31.229 4.763 10.32 17.887 19.99 31.206 22.994 3.124.705 6.178 1.055 9.144 1.055 8.262 0 15.825-2.717 22.221-8.047 20.698-17.249 36.63-54.506 39.015-68.813.291-1.744.698-3.745 1.128-5.863 2.846-13.986 7.146-35.124-6.32-54.806-16.408-23.981-53.421-62.449-82.889-63.582z" data-original="url(#b)"/>
    <path fill="#6aba6a" d="M344.97 268.36c-.43 2.12-.83 4.12-1.12 5.87-2.39 14.3-18.32 51.56-39.02 68.81-6.4 5.33-13.96 8.05-22.22 8.05-2.97 0-6.02-.35-9.14-1.06-13.32-3-26.45-12.67-31.21-22.99-3.1-6.72-2.63-15.36-1.45-24.72 6.14 8.14 16.97 15.11 27.92 17.58 3.12.71 6.17 1.06 9.14 1.06 8.26 0 15.83-2.72 22.22-8.05 20.7-17.25 36.63-54.51 39.02-68.81.29-1.75.69-3.75 1.12-5.87 1.01-4.95 2.19-10.79 2.71-17.15 8.12 17.39 4.52 35.07 2.03 47.28z" data-original="#6aba6a"/>
    <path fill="url(#b)" d="M60.095 253.823a5 5 0 0 0 4.545.76c10.758-3.485 20.758-11.68 29.582-18.91 1.912-1.566 3.718-3.047 5.434-4.396 10.617-8.342 12.594-13.785 14.074-20.035.55-2.322.985-4.156 2.429-6.468.994-1.591 3.777-3.814 6.723-6.169 9.744-7.786 26.053-20.817 26.932-48.961.519-16.579-8.204-29.554-25.227-37.518a5.006 5.006 0 0 0-5.578.919c-37.641 36.072-59.271 84.593-60.908 136.623a4.999 4.999 0 0 0 1.994 4.154zM187.03 371.82c-1.14 6.85-5.22 13.76-9.32 19.24-2.8 3.76-5.61 6.85-7.5 8.79 1.47 5.15 4.23 16.29 4.83 28.76.09 1.78-.77 3.46-2.26 4.43-.82.54-1.78.82-2.73.82-.76 0-1.53-.18-2.23-.53-59.58-29.69-100.07-86.72-108.29-152.55-.01-.04-.01-.08-.01-.12-.01-.06-.02-.13-.02-.19a5.01 5.01 0 0 1 1.74-4.11l.03-.03a4.991 4.991 0 0 1 4.68-.95c19.26 5.88 33.65 8.98 44.01 9.48 3.3.15 6.34.24 9.28.33 17.32.5 29.84.86 42.53 15.66 13.64 15.92 27.81 55.71 25.26 70.97z" data-original="url(#b)"/>
    <path fill="url(#b)" d="M177.71 391.06c-2.8 3.76-5.61 6.85-7.5 8.79 1.47 5.15 4.23 16.29 4.83 28.76.09 1.78-.77 3.46-2.26 4.43-.82.54-1.78.82-2.73.82-.76 0-1.53-.18-2.23-.53-59.58-29.69-100.07-86.72-108.29-152.55-.01-.04-.01-.08-.01-.12-.01-.06-.02-.13-.02-.19-.49-3.98-.86-7.99-1.12-12.03.9 2.66 1.85 5.31 2.86 7.92 17.52 45.66 51.64 83.71 96.67 106.14 6.48 3.23 13.09 6.09 19.8 8.56z" data-original="url(#b)"/>
    <path fill="#c7ffc7" d="M356.059 124.292c3.199-9.491 13.059-15.306 23.107-13.209 28.286 5.902 42.606 36.63 44.146 40.114 4.478 10.137-.108 21.985-10.243 26.464-10.106 4.466-21.914-.08-26.424-10.153-2.942-6.434-10.019-15.96-15.677-17.141-10.848-2.263-17.808-12.893-15.544-23.741.167-.8.38-1.58.634-2.335z" data-original="#c7ffc7"/>
    <circle cx="262.5" cy="240.5" r="24.5" fill="#c7ffc7" data-original="#c7ffc7"/>
    <path fill="#bff3fb" d="M147.351 131.392c-8.714-4.936-12.559-15.718-8.599-25.188 11.146-26.659 44.029-34.907 47.742-35.76 10.801-2.48 21.567 4.265 24.048 15.064 2.474 10.769-4.224 21.503-14.968 24.026-6.874 1.671-17.568 6.819-19.797 12.151-4.274 10.224-16.029 15.047-26.253 10.772a20.348 20.348 0 0 1-2.173-1.064z" data-original="#bff3fb"/>
  </g>
</svg>
